<?xml version="1.0" encoding="utf-8"?>
<svg version="1.1" xmlns:xlink="http://www.w3.org/1999/xlink" width="14px" height="14px" xmlns="http://www.w3.org/2000/svg">
  <g transform="matrix(1 0 0 1 -291 -551 )">
    <path d="M 0 7  C 0 3.13400000000001  3.13400999999999 0  7 0  C 10.866 0  14 3.13400999999999  14 7  C 14 10.866  10.866 14  7 14  C 3.13400000000001 14  0 10.866  0 7  Z M 13 7  C 13 3.68628999999999  10.3137 1  7 1  C 3.68628999999999 1  1 3.68628999999999  1 7  C 1 10.3137  3.68628999999999 13  7 13  C 10.3137 13  13 10.3137  13 7  Z M 5 4.05549999999999  C 5 3.82455999999999  5.25 3.68021999999999  5.45000000000005 3.79569000000001  L 10.55 6.74017000000001  C 10.75 6.85563999999999  10.75 7.14431999999999  10.55 7.25979000000001  L 5.45000000000005 10.2043  C 5.25 10.3198  5 10.1754  5 9.94450000000001  L 5 4.05549999999999  Z " fill-rule="nonzero" fill="#000000" stroke="none" fill-opacity="0.6" transform="matrix(1 0 0 1 291 551 )" />
  </g>
</svg>