<?xml version="1.0" encoding="utf-8"?>
<svg version="1.1" xmlns:xlink="http://www.w3.org/1999/xlink" width="14px" height="14px" xmlns="http://www.w3.org/2000/svg">
  <g transform="matrix(1 0 0 1 -320 -551 )">
    <path d="M 1.5 4.5  L 4.5 4.5  L 4.5 1.5  C 4.5 0.94772  4.94772 0.5  5.5 0.5  L 12.5 0.5  C 13.0523 0.5  13.5 0.94772  13.5 1.5  L 13.5 8.5  C 13.5 9.0523  13.0523 9.5  12.5 9.5  L 9.5 9.5  L 9.5 12.5  C 9.5 13.0523  9.0523 13.5  8.5 13.5  L 1.5 13.5  C 0.94772 13.5  0.5 13.0523  0.5 12.5  L 0.5 5.5  C 0.5 4.94772  0.94772 4.5  1.5 4.5  Z M 12.5 1.5  L 5.5 1.5  L 5.5 4.5  L 8.5 4.5  C 9.0523 4.5  9.5 4.94772  9.5 5.5  L 9.5 8.5  L 12.5 8.5  L 12.5 1.5  Z M 8.5 12.5  L 8.5 9.5  L 5.5 9.5  C 4.94772 9.5  4.5 9.0523  4.5 8.5  L 4.5 5.5  L 1.5 5.5  L 1.5 12.5  L 8.5 12.5  Z M 5.5 8.5  L 8.5 8.5  L 8.5 5.5  L 5.5 5.5  L 5.5 8.5  Z " fill-rule="nonzero" fill="#000000" stroke="none" fill-opacity="0.6" transform="matrix(1 0 0 1 320 551 )" />
  </g>
</svg>