<?xml version="1.0" encoding="utf-8"?>
<svg version="1.1" xmlns:xlink="http://www.w3.org/1999/xlink" width="13px" height="13px" xmlns="http://www.w3.org/2000/svg">
  <g transform="matrix(1 0 0 1 -1964 -2634 )">
    <path d="M 8.03330140000003 6.39001209363636  C 7.76663445999998 6.1536481145454  7.76663445999998 5.68092129090915  8.03330140000003 5.44455732363637  L 11.1999683 2.63773969727277  C 11.5295867999999 2.34557845363636  11.9999685 2.62353129999999  11.9999685 3.1104670881818  L 11.9999676 8.72410405454551  C 11.9999676 9.21103985454551  11.5295857999999 9.48899202727278  11.1999674 9.19683085454551  L 8.03330140000003 6.39001209363636  Z M 12.0005436 10.6526779272728  L 0.00115021999999954 10.6363636363636  L 0 11.8181818181818  L 11.9993925 11.8344961090909  L 12.0005436 10.6526779272728  Z M 6.49996805000001 5.31818181818182  L 0.000575550000007752 5.31818181818182  L 0.000575460000050043 6.5  L 6.49996805000001 6.5  L 6.49996805000001 5.31818181818182  Z M 12.0005436 0  L 0.00115100999994411 0  L 0 1.18181818181818  L 11.9993935 1.19813265000004  L 12.0005436 0  Z M 10.9999685 4.29228526999998  L 9.16663459999995 5.9172847027272  L 10.9999676 7.54228526999998  L 10.9999685 4.29228526999998  Z " fill-rule="nonzero" fill="#78739a" stroke="none" transform="matrix(1 0 0 1 1964 2634 )" />
  </g>
</svg>