<?xml version="1.0" encoding="utf-8"?>
<svg version="1.1" xmlns:xlink="http://www.w3.org/1999/xlink" width="881px" height="744px" xmlns="http://www.w3.org/2000/svg">
  <g transform="matrix(1 0 0 1 -2626 -1078 )">
    <path d="M 2627 1082  A 3 3 0 0 1 2630 1079 L 3503 1079  A 3 3 0 0 1 3506 1082 L 3506 1818  A 3 3 0 0 1 3503 1821 L 2630 1821  A 3 3 0 0 1 2627 1818 L 2627 1082  Z " fill-rule="nonzero" fill="#ff3399" stroke="none" fill-opacity="0.0980392156862745" />
    <path d="M 2626.5 1082  A 3.5 3.5 0 0 1 2630 1078.5 L 3503 1078.5  A 3.5 3.5 0 0 1 3506.5 1082 L 3506.5 1818  A 3.5 3.5 0 0 1 3503 1821.5 L 2630 1821.5  A 3.5 3.5 0 0 1 2626.5 1818 L 2626.5 1082  Z " stroke-width="1" stroke-dasharray="9,4" stroke="#ff3399" fill="none" stroke-dashoffset="0.5" />
  </g>
</svg>