<?xml version="1.0" encoding="utf-8"?>
<svg version="1.1" xmlns:xlink="http://www.w3.org/1999/xlink" width="1484px" height="967px" xmlns="http://www.w3.org/2000/svg">
  <g transform="matrix(1 0 0 1 -893 -191 )">
    <path d="M 894 195  A 3 3 0 0 1 897 192 L 2373 192  A 3 3 0 0 1 2376 195 L 2376 1154  A 3 3 0 0 1 2373 1157 L 897 1157  A 3 3 0 0 1 894 1154 L 894 195  Z " fill-rule="nonzero" fill="#ffecf5" stroke="none" />
    <path d="M 893.5 195  A 3.5 3.5 0 0 1 897 191.5 L 2373 191.5  A 3.5 3.5 0 0 1 2376.5 195 L 2376.5 1154  A 3.5 3.5 0 0 1 2373 1157.5 L 897 1157.5  A 3.5 3.5 0 0 1 893.5 1154 L 893.5 195  Z " stroke-width="1" stroke-dasharray="9,4" stroke="#ff3399" fill="none" stroke-dashoffset="0.5" />
  </g>
</svg>